# xmcd CD database file
#
# Track frame offsets:
#	150
#	22580
#	51130
#	65075
#	94180
#	107257
#	130670
#	156292
#	188812
#	218462
#	242957
#	268680
#	285855
#
# Disc length: 4148 seconds
#
# Revision: 2
# Processed by: cddbd v1.5.2PL0 Copyright (c) Steve Scherf et al.
# Submitted via: CDex 1.51
#
DISCID=a710320d
DTITLE=Vargas Blues Band - Texas Tango
DYEAR=1995
DGENRE=Blues
TTITLE0=Rose On The Water
TTITLE1=Blues Pilgrimage
TTITLE2=Texas Tango
TTITLE3=Love Ain't Got Nowhere To Go
TTITLE4=Ride Baby Ride
TTITLE5=Black Cat Boogie
TTITLE6=1969
TTITLE7=Ridin' High
TTITLE8=Thinking Of You
TTITLE9=Buenos Aires Blues
TTITLE10=Big Boss Man
TTITLE11=253
TTITLE12=Blood Shot
EXTD=YEAR: 1995
EXTT0=
EXTT1=
EXTT2=
EXTT3=
EXTT4=
EXTT5=
EXTT6=
EXTT7=
EXTT8=
EXTT9=
EXTT10=
EXTT11=
EXTT12=
PLAYORDER=
